<svg width="86" height="24" viewBox="0 0 86 24" fill="none" xmlns="http://www.w3.org/2000/svg">
<path d="M0 1.08868H9.10381C12.0306 1.08868 13.4866 2.96535 13.4866 5.12278C13.4866 7.70876 11.3835 9.28989 9.10381 9.28989H2.9415V12.9102H0V1.08868ZM2.9415 3.74857V6.77784H8.67725C10.1186 6.77784 10.4422 5.95034 10.4422 5.19677C10.4422 4.57606 10.1186 3.74857 8.67725 3.74857H2.9415Z" fill="black"/>
<path d="M19.8548 10.6493H15.5455L14.7366 12.9102H11.604L16.325 1.08868H19.3547L23.7816 12.9102H20.5901L19.8548 10.6493ZM16.3985 8.24072H19.09L17.8251 4.29529L16.3985 8.24072Z" fill="black"/>
<path d="M24.2656 1.08868H29.8397C32.4723 1.08868 33.7812 2.96535 33.7812 5.12278C33.8055 5.86657 33.6262 6.60287 33.2635 7.25159C32.9007 7.90031 32.3674 8.43663 31.7225 8.8022L33.7812 12.9102H30.4718L28.8394 9.28989H27.2071V12.9102H24.2656V1.08868ZM27.2071 3.74857V6.77784H29.1189C29.3314 6.79307 29.5453 6.76294 29.7449 6.6895C29.9453 6.616 30.128 6.50087 30.2809 6.35154C30.4332 6.20221 30.553 6.02215 30.6315 5.82318C30.71 5.62415 30.7459 5.4107 30.7371 5.19677C30.7371 4.57606 30.2661 3.74857 29.1189 3.74857H27.2071Z" fill="black"/>
<path d="M34.4585 4.69478C34.4585 2.19741 36.4435 0.852783 39.003 0.852783C40.4878 0.852783 42.1209 1.23691 43.0474 1.76895L42.4883 4.28094C41.3839 3.68954 40.1515 3.38 38.8994 3.3796C37.9878 3.3796 37.37 3.73422 37.37 4.35478C37.37 6.27585 43.3999 5.19724 43.3999 9.17218C43.3999 11.2852 41.9002 13.1472 38.7675 13.1472C37.4288 13.1472 35.9142 12.9698 34.6933 12.3935L34.8111 9.68931C36.0712 10.3055 37.4545 10.6239 38.8555 10.6202C40.1501 10.6202 40.4736 10.1622 40.4736 9.61547C40.4736 7.8423 34.4585 8.87665 34.4585 4.69478Z" fill="black"/>
<path d="M50.6501 0.852783C54.6945 0.852783 57.6066 2.95106 57.6066 6.94082C57.6066 11.0931 54.4597 13.1472 50.6359 13.1472C46.7824 13.1472 43.6348 11.0637 43.6348 6.95565C43.6348 3.08407 46.5029 0.852783 50.6501 0.852783ZM50.6062 10.6646C52.9153 10.6646 54.5774 9.48246 54.5774 6.88173C54.5774 4.51744 52.9153 3.33526 50.621 3.33526C48.3268 3.33526 46.6647 4.48786 46.6647 6.9704C46.6647 9.46764 48.3268 10.6646 50.6062 10.6646Z" fill="black"/>
<path d="M61.9303 4.62088H61.1953V12.9108H58.2534V1.08923H62.3864L70.1666 8.55128H70.9015V1.08923H73.8428V12.9108H70.2843L61.9303 4.62088Z" fill="black"/>
<path d="M74.916 4.69478C74.916 2.19741 77.2691 0.852783 80.4168 0.852783C82.4166 0.852783 84.4902 1.23691 85.4167 1.76895L84.8584 4.28094C83.873 3.68995 81.8874 3.3796 80.3139 3.3796C78.622 3.3796 77.8281 3.73422 77.8281 4.35478C77.8281 6.3941 85.77 4.81297 85.77 9.17218C85.77 11.2852 83.9759 13.1472 80.1813 13.1472C78.4751 13.1472 76.3717 12.9698 75.1515 12.3935L75.2693 9.68931C76.4895 10.2804 78.2694 10.6202 80.2692 10.6202C82.196 10.6202 82.843 10.1622 82.843 9.61547C82.843 7.70922 74.916 9.23127 74.916 4.69478Z" fill="black"/>
<path d="M0.648 15.7212H2.871C3.849 15.7452 4.584 16.0212 5.076 16.5492C5.574 17.0712 5.823 17.8662 5.823 18.9342C5.823 20.0022 5.574 20.8002 5.076 21.3282C4.584 21.8502 3.849 22.1232 2.871 22.1472H0.648V15.7212ZM1.26 21.6252H2.565C3.027 21.6252 3.423 21.5772 3.753 21.4812C4.089 21.3792 4.365 21.2202 4.581 21.0042C4.797 20.7882 4.956 20.5092 5.058 20.1672C5.16 19.8252 5.211 19.4142 5.211 18.9342C5.211 18.4542 5.16 18.0432 5.058 17.7012C4.956 17.3592 4.797 17.0802 4.581 16.8642C4.365 16.6482 4.089 16.4922 3.753 16.3962C3.423 16.2942 3.027 16.2432 2.565 16.2432H1.26V21.6252ZM6.64713 18.9252C6.66513 18.6552 6.72213 18.4212 6.81813 18.2232C6.91413 18.0252 7.04313 17.8632 7.20513 17.7372C7.37313 17.6112 7.56813 17.5182 7.79013 17.4582C8.01213 17.3982 8.25813 17.3682 8.52813 17.3682C8.73213 17.3682 8.93613 17.3892 9.14013 17.4312C9.34413 17.4672 9.52713 17.5392 9.68913 17.6472C9.85113 17.7552 9.98313 17.9082 10.0851 18.1062C10.1871 18.2982 10.2381 18.5502 10.2381 18.8622V21.3282C10.2381 21.5562 10.3491 21.6702 10.5711 21.6702C10.6371 21.6702 10.6971 21.6582 10.7511 21.6342V22.1112C10.6851 22.1232 10.6251 22.1322 10.5711 22.1382C10.5231 22.1442 10.4601 22.1472 10.3821 22.1472C10.2381 22.1472 10.1211 22.1292 10.0311 22.0932C9.94713 22.0512 9.88113 21.9942 9.83313 21.9222C9.78513 21.8502 9.75213 21.7662 9.73413 21.6702C9.72213 21.5682 9.71613 21.4572 9.71613 21.3372H9.69813C9.59613 21.4872 9.49113 21.6222 9.38313 21.7422C9.28113 21.8562 9.16413 21.9522 9.03213 22.0302C8.90613 22.1082 8.75913 22.1682 8.59113 22.2102C8.42913 22.2522 8.23413 22.2732 8.00613 22.2732C7.79013 22.2732 7.58613 22.2462 7.39413 22.1922C7.20813 22.1442 7.04313 22.0662 6.89913 21.9582C6.76113 21.8442 6.65013 21.7032 6.56613 21.5352C6.48813 21.3612 6.44913 21.1572 6.44913 20.9232C6.44913 20.5992 6.52113 20.3472 6.66513 20.1672C6.80913 19.9812 6.99813 19.8402 7.23213 19.7442C7.47213 19.6482 7.73913 19.5822 8.03313 19.5462C8.33313 19.5042 8.63613 19.4652 8.94213 19.4292C9.06213 19.4172 9.16713 19.4022 9.25713 19.3842C9.34713 19.3662 9.42213 19.3362 9.48213 19.2942C9.54213 19.2462 9.58713 19.1832 9.61713 19.1052C9.65313 19.0272 9.67113 18.9252 9.67113 18.7992C9.67113 18.6072 9.63813 18.4512 9.57213 18.3312C9.51213 18.2052 9.42513 18.1062 9.31113 18.0342C9.20313 17.9622 9.07413 17.9142 8.92413 17.8902C8.78013 17.8602 8.62413 17.8452 8.45613 17.8452C8.09613 17.8452 7.80213 17.9322 7.57413 18.1062C7.34613 18.2742 7.22613 18.5472 7.21413 18.9252H6.64713ZM9.67113 19.6092H9.65313C9.61713 19.6752 9.54813 19.7232 9.44613 19.7532C9.34413 19.7832 9.25413 19.8042 9.17613 19.8162C8.93613 19.8582 8.68713 19.8972 8.42913 19.9332C8.17713 19.9632 7.94613 20.0112 7.73613 20.0772C7.52613 20.1432 7.35213 20.2392 7.21413 20.3652C7.08213 20.4852 7.01613 20.6592 7.01613 20.8872C7.01613 21.0312 7.04313 21.1602 7.09713 21.2742C7.15713 21.3822 7.23513 21.4782 7.33113 21.5622C7.42713 21.6402 7.53813 21.7002 7.66413 21.7422C7.79013 21.7842 7.91913 21.8052 8.05113 21.8052C8.26713 21.8052 8.47413 21.7722 8.67213 21.7062C8.87013 21.6402 9.04113 21.5442 9.18513 21.4182C9.33513 21.2922 9.45213 21.1392 9.53613 20.9592C9.62613 20.7792 9.67113 20.5752 9.67113 20.3472V19.6092ZM12.2681 17.5032H13.2131V17.9802H12.2681V21.1122C12.2681 21.2982 12.2921 21.4452 12.3401 21.5532C12.3941 21.6552 12.5231 21.7122 12.7271 21.7242C12.8891 21.7242 13.0511 21.7152 13.2131 21.6972V22.1742C13.1291 22.1742 13.0451 22.1772 12.9611 22.1832C12.8771 22.1892 12.7931 22.1922 12.7091 22.1922C12.3311 22.1922 12.0671 22.1202 11.9171 21.9762C11.7671 21.8262 11.6951 21.5532 11.7011 21.1572V17.9802H10.8911V17.5032H11.7011V16.1082H12.2681V17.5032ZM13.9772 18.9252C13.9952 18.6552 14.0522 18.4212 14.1482 18.2232C14.2442 18.0252 14.3732 17.8632 14.5352 17.7372C14.7032 17.6112 14.8982 17.5182 15.1202 17.4582C15.3422 17.3982 15.5882 17.3682 15.8582 17.3682C16.0622 17.3682 16.2662 17.3892 16.4702 17.4312C16.6742 17.4672 16.8572 17.5392 17.0192 17.6472C17.1812 17.7552 17.3132 17.9082 17.4152 18.1062C17.5172 18.2982 17.5682 18.5502 17.5682 18.8622V21.3282C17.5682 21.5562 17.6792 21.6702 17.9012 21.6702C17.9672 21.6702 18.0272 21.6582 18.0812 21.6342V22.1112C18.0152 22.1232 17.9552 22.1322 17.9012 22.1382C17.8532 22.1442 17.7902 22.1472 17.7122 22.1472C17.5682 22.1472 17.4512 22.1292 17.3612 22.0932C17.2772 22.0512 17.2112 21.9942 17.1632 21.9222C17.1152 21.8502 17.0822 21.7662 17.0642 21.6702C17.0522 21.5682 17.0462 21.4572 17.0462 21.3372H17.0282C16.9262 21.4872 16.8212 21.6222 16.7132 21.7422C16.6112 21.8562 16.4942 21.9522 16.3622 22.0302C16.2362 22.1082 16.0892 22.1682 15.9212 22.2102C15.7592 22.2522 15.5642 22.2732 15.3362 22.2732C15.1202 22.2732 14.9162 22.2462 14.7242 22.1922C14.5382 22.1442 14.3732 22.0662 14.2292 21.9582C14.0912 21.8442 13.9802 21.7032 13.8962 21.5352C13.8182 21.3612 13.7792 21.1572 13.7792 20.9232C13.7792 20.5992 13.8512 20.3472 13.9952 20.1672C14.1392 19.9812 14.3282 19.8402 14.5622 19.7442C14.8022 19.6482 15.0692 19.5822 15.3632 19.5462C15.6632 19.5042 15.9662 19.4652 16.2722 19.4292C16.3922 19.4172 16.4972 19.4022 16.5872 19.3842C16.6772 19.3662 16.7522 19.3362 16.8122 19.2942C16.8722 19.2462 16.9172 19.1832 16.9472 19.1052C16.9832 19.0272 17.0012 18.9252 17.0012 18.7992C17.0012 18.6072 16.9682 18.4512 16.9022 18.3312C16.8422 18.2052 16.7552 18.1062 16.6412 18.0342C16.5332 17.9622 16.4042 17.9142 16.2542 17.8902C16.1102 17.8602 15.9542 17.8452 15.7862 17.8452C15.4262 17.8452 15.1322 17.9322 14.9042 18.1062C14.6762 18.2742 14.5562 18.5472 14.5442 18.9252H13.9772ZM17.0012 19.6092H16.9832C16.9472 19.6752 16.8782 19.7232 16.7762 19.7532C16.6742 19.7832 16.5842 19.8042 16.5062 19.8162C16.2662 19.8582 16.0172 19.8972 15.7592 19.9332C15.5072 19.9632 15.2762 20.0112 15.0662 20.0772C14.8562 20.1432 14.6822 20.2392 14.5442 20.3652C14.4122 20.4852 14.3462 20.6592 14.3462 20.8872C14.3462 21.0312 14.3732 21.1602 14.4272 21.2742C14.4872 21.3822 14.5652 21.4782 14.6612 21.5622C14.7572 21.6402 14.8682 21.7002 14.9942 21.7422C15.1202 21.7842 15.2492 21.8052 15.3812 21.8052C15.5972 21.8052 15.8042 21.7722 16.0022 21.7062C16.2002 21.6402 16.3712 21.5442 16.5152 21.4182C16.6652 21.2922 16.7822 21.1392 16.8662 20.9592C16.9562 20.7792 17.0012 20.5752 17.0012 20.3472V19.6092ZM20.6091 15.7212H21.2571L23.3451 21.4722H23.3631L25.4331 15.7212H26.0811L23.6961 22.1472H22.9851L20.6091 15.7212ZM26.5998 15.7212H27.1668V16.6302H26.5998V15.7212ZM26.5998 17.5032H27.1668V22.1472H26.5998V17.5032ZM31.0329 18.8622C31.0269 18.6882 30.9909 18.5382 30.9249 18.4122C30.8589 18.2802 30.7689 18.1722 30.6549 18.0882C30.5469 18.0042 30.4209 17.9442 30.2769 17.9082C30.1329 17.8662 29.9799 17.8452 29.8179 17.8452C29.6919 17.8452 29.5629 17.8602 29.4309 17.8902C29.3049 17.9142 29.1879 17.9592 29.0799 18.0252C28.9719 18.0852 28.8849 18.1662 28.8189 18.2682C28.7529 18.3702 28.7199 18.4962 28.7199 18.6462C28.7199 18.7722 28.7499 18.8802 28.8099 18.9702C28.8759 19.0542 28.9569 19.1262 29.0529 19.1862C29.1489 19.2462 29.2539 19.2972 29.3679 19.3392C29.4819 19.3752 29.5869 19.4052 29.6829 19.4292L30.4389 19.6002C30.6009 19.6242 30.7599 19.6692 30.9159 19.7352C31.0779 19.7952 31.2189 19.8762 31.3389 19.9782C31.4649 20.0802 31.5669 20.2062 31.6449 20.3562C31.7229 20.5062 31.7619 20.6832 31.7619 20.8872C31.7619 21.1392 31.7049 21.3552 31.5909 21.5352C31.4769 21.7092 31.3299 21.8532 31.1499 21.9672C30.9759 22.0752 30.7779 22.1532 30.5559 22.2012C30.3339 22.2492 30.1149 22.2732 29.8989 22.2732C29.3529 22.2732 28.9089 22.1442 28.5669 21.8862C28.2309 21.6282 28.0389 21.2142 27.9909 20.6442H28.5579C28.5819 21.0282 28.7199 21.3192 28.9719 21.5172C29.2299 21.7092 29.5479 21.8052 29.9259 21.8052C30.0639 21.8052 30.2049 21.7902 30.3489 21.7602C30.4989 21.7302 30.6369 21.6792 30.7629 21.6072C30.8889 21.5352 30.9909 21.4452 31.0689 21.3372C31.1529 21.2232 31.1949 21.0852 31.1949 20.9232C31.1949 20.7852 31.1649 20.6712 31.1049 20.5812C31.0509 20.4852 30.9759 20.4072 30.8799 20.3472C30.7839 20.2812 30.6729 20.2272 30.5469 20.1852C30.4269 20.1432 30.3039 20.1072 30.1779 20.0772L29.4489 19.9152C29.2629 19.8672 29.0919 19.8132 28.9359 19.7532C28.7799 19.6872 28.6419 19.6092 28.5219 19.5192C28.4079 19.4232 28.3179 19.3092 28.2519 19.1772C28.1859 19.0392 28.1529 18.8712 28.1529 18.6732C28.1529 18.4392 28.2039 18.2382 28.3059 18.0702C28.4139 17.9022 28.5519 17.7672 28.7199 17.6652C28.8879 17.5632 29.0739 17.4882 29.2779 17.4402C29.4879 17.3922 29.6949 17.3682 29.8989 17.3682C30.1329 17.3682 30.3489 17.3982 30.5469 17.4582C30.7509 17.5182 30.9279 17.6112 31.0779 17.7372C31.2339 17.8632 31.3569 18.0192 31.4469 18.2052C31.5369 18.3912 31.5879 18.6102 31.5999 18.8622H31.0329ZM36.3469 22.1472H35.8249V21.3102H35.8069C35.6569 21.6222 35.4379 21.8622 35.1499 22.0302C34.8679 22.1922 34.5529 22.2732 34.2049 22.2732C33.9109 22.2732 33.6589 22.2312 33.4489 22.1472C33.2449 22.0692 33.0769 21.9552 32.9449 21.8052C32.8189 21.6552 32.7259 21.4722 32.6659 21.2562C32.6059 21.0402 32.5759 20.7942 32.5759 20.5182V17.5032H33.1429V20.5272C33.1549 20.9472 33.2509 21.2652 33.4309 21.4812C33.6169 21.6972 33.9349 21.8052 34.3849 21.8052C34.6309 21.8052 34.8409 21.7542 35.0149 21.6522C35.1889 21.5442 35.3329 21.4032 35.4469 21.2292C35.5609 21.0552 35.6449 20.8572 35.6989 20.6352C35.7529 20.4072 35.7799 20.1762 35.7799 19.9422V17.5032H36.3469V22.1472ZM37.3649 18.9252C37.3829 18.6552 37.4399 18.4212 37.5359 18.2232C37.6319 18.0252 37.7609 17.8632 37.9229 17.7372C38.0909 17.6112 38.2859 17.5182 38.5079 17.4582C38.7299 17.3982 38.9759 17.3682 39.2459 17.3682C39.4499 17.3682 39.6539 17.3892 39.8579 17.4312C40.0619 17.4672 40.2449 17.5392 40.4069 17.6472C40.5689 17.7552 40.7009 17.9082 40.8029 18.1062C40.9049 18.2982 40.9559 18.5502 40.9559 18.8622V21.3282C40.9559 21.5562 41.0669 21.6702 41.2889 21.6702C41.3549 21.6702 41.4149 21.6582 41.4689 21.6342V22.1112C41.4029 22.1232 41.3429 22.1322 41.2889 22.1382C41.2409 22.1442 41.1779 22.1472 41.0999 22.1472C40.9559 22.1472 40.8389 22.1292 40.7489 22.0932C40.6649 22.0512 40.5989 21.9942 40.5509 21.9222C40.5029 21.8502 40.4699 21.7662 40.4519 21.6702C40.4399 21.5682 40.4339 21.4572 40.4339 21.3372H40.4159C40.3139 21.4872 40.2089 21.6222 40.1009 21.7422C39.9989 21.8562 39.8819 21.9522 39.7499 22.0302C39.6239 22.1082 39.4769 22.1682 39.3089 22.2102C39.1469 22.2522 38.9519 22.2732 38.7239 22.2732C38.5079 22.2732 38.3039 22.2462 38.1119 22.1922C37.9259 22.1442 37.7609 22.0662 37.6169 21.9582C37.4789 21.8442 37.3679 21.7032 37.2839 21.5352C37.2059 21.3612 37.1669 21.1572 37.1669 20.9232C37.1669 20.5992 37.2389 20.3472 37.3829 20.1672C37.5269 19.9812 37.7159 19.8402 37.9499 19.7442C38.1899 19.6482 38.4569 19.5822 38.7509 19.5462C39.0509 19.5042 39.3539 19.4652 39.6599 19.4292C39.7799 19.4172 39.8849 19.4022 39.9749 19.3842C40.0649 19.3662 40.1399 19.3362 40.1999 19.2942C40.2599 19.2462 40.3049 19.1832 40.3349 19.1052C40.3709 19.0272 40.3889 18.9252 40.3889 18.7992C40.3889 18.6072 40.3559 18.4512 40.2899 18.3312C40.2299 18.2052 40.1429 18.1062 40.0289 18.0342C39.9209 17.9622 39.7919 17.9142 39.6419 17.8902C39.4979 17.8602 39.3419 17.8452 39.1739 17.8452C38.8139 17.8452 38.5199 17.9322 38.2919 18.1062C38.0639 18.2742 37.9439 18.5472 37.9319 18.9252H37.3649ZM40.3889 19.6092H40.3709C40.3349 19.6752 40.2659 19.7232 40.1639 19.7532C40.0619 19.7832 39.9719 19.8042 39.8939 19.8162C39.6539 19.8582 39.4049 19.8972 39.1469 19.9332C38.8949 19.9632 38.6639 20.0112 38.4539 20.0772C38.2439 20.1432 38.0699 20.2392 37.9319 20.3652C37.7999 20.4852 37.7339 20.6592 37.7339 20.8872C37.7339 21.0312 37.7609 21.1602 37.8149 21.2742C37.8749 21.3822 37.9529 21.4782 38.0489 21.5622C38.1449 21.6402 38.2559 21.7002 38.3819 21.7422C38.5079 21.7842 38.6369 21.8052 38.7689 21.8052C38.9849 21.8052 39.1919 21.7722 39.3899 21.7062C39.5879 21.6402 39.7589 21.5442 39.9029 21.4182C40.0529 21.2922 40.1699 21.1392 40.2539 20.9592C40.3439 20.7792 40.3889 20.5752 40.3889 20.3472V19.6092ZM42.0949 15.7212H42.6619V22.1472H42.0949V15.7212ZM43.756 15.7212H44.323V16.6302H43.756V15.7212ZM43.756 17.5032H44.323V22.1472H43.756V17.5032ZM45.6872 21.6702H48.8822V22.1472H45.0032V21.6882L48.0362 17.9802H45.2102V17.5032H48.7562V17.9082L45.6872 21.6702ZM49.5202 18.9252C49.5382 18.6552 49.5952 18.4212 49.6912 18.2232C49.7872 18.0252 49.9162 17.8632 50.0782 17.7372C50.2462 17.6112 50.4412 17.5182 50.6632 17.4582C50.8852 17.3982 51.1312 17.3682 51.4012 17.3682C51.6052 17.3682 51.8092 17.3892 52.0132 17.4312C52.2172 17.4672 52.4002 17.5392 52.5622 17.6472C52.7242 17.7552 52.8562 17.9082 52.9582 18.1062C53.0602 18.2982 53.1112 18.5502 53.1112 18.8622V21.3282C53.1112 21.5562 53.2222 21.6702 53.4442 21.6702C53.5102 21.6702 53.5702 21.6582 53.6242 21.6342V22.1112C53.5582 22.1232 53.4982 22.1322 53.4442 22.1382C53.3962 22.1442 53.3332 22.1472 53.2552 22.1472C53.1112 22.1472 52.9942 22.1292 52.9042 22.0932C52.8202 22.0512 52.7542 21.9942 52.7062 21.9222C52.6582 21.8502 52.6252 21.7662 52.6072 21.6702C52.5952 21.5682 52.5892 21.4572 52.5892 21.3372H52.5712C52.4692 21.4872 52.3642 21.6222 52.2562 21.7422C52.1542 21.8562 52.0372 21.9522 51.9052 22.0302C51.7792 22.1082 51.6322 22.1682 51.4642 22.2102C51.3022 22.2522 51.1072 22.2732 50.8792 22.2732C50.6632 22.2732 50.4592 22.2462 50.2672 22.1922C50.0812 22.1442 49.9162 22.0662 49.7722 21.9582C49.6342 21.8442 49.5232 21.7032 49.4392 21.5352C49.3612 21.3612 49.3222 21.1572 49.3222 20.9232C49.3222 20.5992 49.3942 20.3472 49.5382 20.1672C49.6822 19.9812 49.8712 19.8402 50.1052 19.7442C50.3452 19.6482 50.6122 19.5822 50.9062 19.5462C51.2062 19.5042 51.5092 19.4652 51.8152 19.4292C51.9352 19.4172 52.0402 19.4022 52.1302 19.3842C52.2202 19.3662 52.2952 19.3362 52.3552 19.2942C52.4152 19.2462 52.4602 19.1832 52.4902 19.1052C52.5262 19.0272 52.5442 18.9252 52.5442 18.7992C52.5442 18.6072 52.5112 18.4512 52.4452 18.3312C52.3852 18.2052 52.2982 18.1062 52.1842 18.0342C52.0762 17.9622 51.9472 17.9142 51.7972 17.8902C51.6532 17.8602 51.4972 17.8452 51.3292 17.8452C50.9692 17.8452 50.6752 17.9322 50.4472 18.1062C50.2192 18.2742 50.0992 18.5472 50.0872 18.9252H49.5202ZM52.5442 19.6092H52.5262C52.4902 19.6752 52.4212 19.7232 52.3192 19.7532C52.2172 19.7832 52.1272 19.8042 52.0492 19.8162C51.8092 19.8582 51.5602 19.8972 51.3022 19.9332C51.0502 19.9632 50.8192 20.0112 50.6092 20.0772C50.3992 20.1432 50.2252 20.2392 50.0872 20.3652C49.9552 20.4852 49.8892 20.6592 49.8892 20.8872C49.8892 21.0312 49.9162 21.1602 49.9702 21.2742C50.0302 21.3822 50.1082 21.4782 50.2042 21.5622C50.3002 21.6402 50.4112 21.7002 50.5372 21.7422C50.6632 21.7842 50.7922 21.8052 50.9242 21.8052C51.1402 21.8052 51.3472 21.7722 51.5452 21.7062C51.7432 21.6402 51.9142 21.5442 52.0582 21.4182C52.2082 21.2922 52.3252 21.1392 52.4092 20.9592C52.4992 20.7792 52.5442 20.5752 52.5442 20.3472V19.6092ZM55.1412 17.5032H56.0862V17.9802H55.1412V21.1122C55.1412 21.2982 55.1652 21.4452 55.2132 21.5532C55.2672 21.6552 55.3962 21.7122 55.6002 21.7242C55.7622 21.7242 55.9242 21.7152 56.0862 21.6972V22.1742C56.0022 22.1742 55.9182 22.1772 55.8342 22.1832C55.7502 22.1892 55.6662 22.1922 55.5822 22.1922C55.2042 22.1922 54.9402 22.1202 54.7902 21.9762C54.6402 21.8262 54.5682 21.5532 54.5742 21.1572V17.9802H53.7642V17.5032H54.5742V16.1082H55.1412V17.5032ZM56.9133 15.7212H57.4803V16.6302H56.9133V15.7212ZM56.9133 17.5032H57.4803V22.1472H56.9133V17.5032ZM60.5274 17.8452C60.2574 17.8452 60.0204 17.9022 59.8164 18.0162C59.6124 18.1302 59.4414 18.2802 59.3034 18.4662C59.1714 18.6522 59.0694 18.8652 58.9974 19.1052C58.9314 19.3392 58.8984 19.5792 58.8984 19.8252C58.8984 20.0712 58.9314 20.3142 58.9974 20.5542C59.0694 20.7882 59.1714 20.9982 59.3034 21.1842C59.4414 21.3702 59.6124 21.5202 59.8164 21.6342C60.0204 21.7482 60.2574 21.8052 60.5274 21.8052C60.7974 21.8052 61.0344 21.7482 61.2384 21.6342C61.4424 21.5202 61.6104 21.3702 61.7424 21.1842C61.8804 20.9982 61.9824 20.7882 62.0484 20.5542C62.1204 20.3142 62.1564 20.0712 62.1564 19.8252C62.1564 19.5792 62.1204 19.3392 62.0484 19.1052C61.9824 18.8652 61.8804 18.6522 61.7424 18.4662C61.6104 18.2802 61.4424 18.1302 61.2384 18.0162C61.0344 17.9022 60.7974 17.8452 60.5274 17.8452ZM60.5274 17.3682C60.8814 17.3682 61.1934 17.4342 61.4634 17.5662C61.7394 17.6982 61.9704 17.8752 62.1564 18.0972C62.3424 18.3192 62.4834 18.5802 62.5794 18.8802C62.6754 19.1742 62.7234 19.4892 62.7234 19.8252C62.7234 20.1612 62.6754 20.4792 62.5794 20.7792C62.4834 21.0732 62.3424 21.3312 62.1564 21.5532C61.9704 21.7752 61.7394 21.9522 61.4634 22.0842C61.1934 22.2102 60.8814 22.2732 60.5274 22.2732C60.1734 22.2732 59.8584 22.2102 59.5824 22.0842C59.3124 21.9522 59.0844 21.7752 58.8984 21.5532C58.7124 21.3312 58.5714 21.0732 58.4754 20.7792C58.3794 20.4792 58.3314 20.1612 58.3314 19.8252C58.3314 19.4892 58.3794 19.1742 58.4754 18.8802C58.5714 18.5802 58.7124 18.3192 58.8984 18.0972C59.0844 17.8752 59.3124 17.6982 59.5824 17.5662C59.8584 17.4342 60.1734 17.3682 60.5274 17.3682ZM63.5574 17.5032H64.1244V18.3042H64.1424C64.2504 18.0222 64.4424 17.7972 64.7184 17.6292C64.9944 17.4552 65.2974 17.3682 65.6274 17.3682C65.9514 17.3682 66.2214 17.4102 66.4374 17.4942C66.6594 17.5782 66.8364 17.6982 66.9684 17.8542C67.1004 18.0042 67.1934 18.1902 67.2474 18.4122C67.3014 18.6342 67.3284 18.8832 67.3284 19.1592V22.1472H66.7614V19.2492C66.7614 19.0512 66.7434 18.8682 66.7074 18.7002C66.6714 18.5262 66.6084 18.3762 66.5184 18.2502C66.4284 18.1242 66.3054 18.0252 66.1494 17.9532C65.9994 17.8812 65.8104 17.8452 65.5824 17.8452C65.3544 17.8452 65.1504 17.8872 64.9704 17.9712C64.7964 18.0492 64.6464 18.1602 64.5204 18.3042C64.4004 18.4422 64.3044 18.6102 64.2324 18.8082C64.1664 19.0002 64.1304 19.2102 64.1244 19.4382V22.1472H63.5574V17.5032ZM71.8952 15.7212L74.0282 21.3552L76.2422 15.7212H77.1422V22.1472H76.5302V16.5942H76.5122L74.3162 22.1472H73.7402L71.6252 16.5942H71.6072V22.1472H70.9952V15.7212H71.8952ZM78.6928 20.0322C78.6868 20.3622 78.7378 20.6382 78.8458 20.8602C78.9538 21.0822 79.1008 21.2592 79.2868 21.3912C79.4788 21.5232 79.7038 21.6192 79.9618 21.6792C80.2198 21.7332 80.4958 21.7602 80.7898 21.7602C80.9578 21.7602 81.1408 21.7362 81.3388 21.6882C81.5368 21.6402 81.7198 21.5652 81.8878 21.4632C82.0618 21.3552 82.2058 21.2202 82.3198 21.0582C82.4338 20.8902 82.4908 20.6892 82.4908 20.4552C82.4908 20.2752 82.4488 20.1192 82.3648 19.9872C82.2868 19.8552 82.1818 19.7442 82.0498 19.6542C81.9238 19.5642 81.7828 19.4922 81.6268 19.4382C81.4708 19.3782 81.3178 19.3302 81.1678 19.2942L79.7368 18.9432C79.5508 18.8952 79.3678 18.8352 79.1878 18.7632C79.0138 18.6912 78.8608 18.5952 78.7288 18.4752C78.5968 18.3552 78.4888 18.2082 78.4048 18.0342C78.3268 17.8602 78.2878 17.6472 78.2878 17.3952C78.2878 17.2392 78.3178 17.0562 78.3778 16.8462C78.4378 16.6362 78.5488 16.4382 78.7108 16.2522C78.8788 16.0662 79.1068 15.9102 79.3948 15.7842C79.6828 15.6522 80.0518 15.5862 80.5018 15.5862C80.8198 15.5862 81.1228 15.6282 81.4108 15.7122C81.6988 15.7962 81.9508 15.9222 82.1668 16.0902C82.3828 16.2582 82.5538 16.4682 82.6798 16.7202C82.8118 16.9662 82.8778 17.2542 82.8778 17.5842H82.2658C82.2538 17.3382 82.1968 17.1252 82.0948 16.9452C81.9988 16.7592 81.8698 16.6062 81.7078 16.4862C81.5518 16.3602 81.3688 16.2672 81.1588 16.2072C80.9548 16.1412 80.7388 16.1082 80.5108 16.1082C80.3008 16.1082 80.0968 16.1322 79.8988 16.1802C79.7068 16.2222 79.5358 16.2942 79.3858 16.3962C79.2418 16.4922 79.1248 16.6212 79.0348 16.7832C78.9448 16.9452 78.8998 17.1462 78.8998 17.3862C78.8998 17.5362 78.9238 17.6682 78.9718 17.7822C79.0258 17.8902 79.0978 17.9832 79.1878 18.0612C79.2778 18.1392 79.3798 18.2022 79.4938 18.2502C79.6138 18.2982 79.7398 18.3372 79.8718 18.3672L81.4378 18.7542C81.6658 18.8142 81.8788 18.8892 82.0768 18.9792C82.2808 19.0632 82.4578 19.1712 82.6078 19.3032C82.7638 19.4292 82.8838 19.5852 82.9678 19.7712C83.0578 19.9572 83.1028 20.1822 83.1028 20.4462C83.1028 20.5182 83.0938 20.6142 83.0758 20.7342C83.0638 20.8542 83.0278 20.9832 82.9678 21.1212C82.9138 21.2532 82.8328 21.3882 82.7248 21.5262C82.6228 21.6642 82.4788 21.7902 82.2928 21.9042C82.1128 22.0122 81.8878 22.0992 81.6178 22.1652C81.3478 22.2372 81.0238 22.2732 80.6458 22.2732C80.2678 22.2732 79.9168 22.2312 79.5928 22.1472C79.2688 22.0572 78.9928 21.9222 78.7648 21.7422C78.5368 21.5622 78.3598 21.3312 78.2338 21.0492C78.1138 20.7672 78.0628 20.4282 78.0808 20.0322H78.6928Z" fill="black"/>
</svg>
