<svg width="188" height="104" viewBox="0 0 188 104" fill="none" xmlns="http://www.w3.org/2000/svg">
<g clip-path="url(#clip0_110_1418)">
<path d="M16.7161 23.862C18.0611 24.923 18.1321 25.596 18.1321 34.76L9.03908 24.818C8.61408 24.358 8.15408 23.827 7.80008 23.367H2.10308C2.20908 27.719 2.24508 29.417 2.24508 35.326V35.574C2.24508 45.517 2.21008 46.189 0.830078 47.286V47.781H10.1001V47.286C8.75508 46.224 8.68408 45.552 8.68408 35.893L15.8311 43.642C17.2821 45.234 18.4141 46.579 19.3701 47.782H24.3231L24.5351 33.983C24.6771 25.703 24.5701 24.996 25.9861 23.864V23.369H16.7161V23.862Z" fill="black"/>
<path d="M32.8511 48.099C35.2921 48.099 36.7081 46.967 37.6981 44.985L38.0871 47.78H45.6951V47.285C44.5981 46.33 44.4921 45.516 44.4921 39.678V30.443L44.3501 30.372L41.3071 32.212C39.3261 31.009 37.4861 30.478 35.3631 30.478C30.8691 30.478 26.4111 33.769 26.4111 40.138C26.4111 44.631 29.1351 48.099 32.8511 48.099ZM36.2831 34.972C36.7781 34.972 37.0611 35.043 37.4501 35.22V43.252C37.2021 43.323 36.9551 43.394 36.7071 43.394C34.9381 43.394 33.7351 42.12 33.7351 39.396C33.7351 36.528 34.9381 34.972 36.2831 34.972Z" fill="black"/>
<path d="M47.569 42.508C47.569 46.612 49.798 48.169 53.442 48.169C55.565 48.169 57.016 47.674 58.431 47.072L58.714 42.437L58.572 42.366C57.794 42.932 56.98 43.25 56.414 43.25C55.388 43.25 54.821 42.719 54.821 41.269V35.325H58.819V30.867H54.821V25.595H54.538C51.566 28.213 48.559 30.407 46.082 31.858V35.325H47.568L47.569 42.508Z" fill="black"/>
<path d="M69.5408 47.285C68.4438 46.33 68.3378 45.516 68.3378 39.678V30.868H59.8818V31.364C60.9788 32.319 61.0848 33.133 61.0848 39.077V39.572C61.0848 45.516 60.9788 46.33 59.8818 47.285V47.78H69.5408V47.285Z" fill="black"/>
<path d="M64.4461 29.841C66.8871 29.841 68.7271 28.143 68.7271 25.984C68.7271 23.932 67.2761 22.198 64.6931 22.198C62.2521 22.198 60.4121 23.896 60.4121 26.055C60.4121 28.107 61.8631 29.841 64.4461 29.841Z" fill="black"/>
<path d="M79.484 48.346C84.579 48.346 88.79 44.808 88.79 39.359C88.79 33.839 84.58 30.301 79.555 30.301C74.46 30.301 70.249 33.839 70.249 39.288C70.249 44.808 74.459 48.346 79.484 48.346ZM79.413 34.795C80.793 34.795 81.465 36.493 81.465 39.501C81.465 42.686 80.722 43.853 79.625 43.853C78.245 43.853 77.572 42.155 77.572 39.147C77.573 35.962 78.316 34.795 79.413 34.795Z" fill="black"/>
<path d="M107.931 39.571V35.997C107.931 32.636 106.728 30.513 103.154 30.513C100.855 30.513 99.0852 31.893 98.1302 33.804L97.9882 33.769V30.868H89.5322V31.364C90.6292 32.319 90.7352 33.133 90.7352 38.476V39.573C90.7352 45.517 90.6292 46.331 89.5322 47.286V47.781H98.8022V47.286C98.0942 46.578 97.9882 45.517 97.9882 39.997V37.202C97.9882 35.893 98.5902 35.398 99.4042 35.398C100.112 35.398 100.678 35.929 100.678 37.202V39.997C100.678 45.517 100.572 46.578 99.8642 47.286V47.781H109.134V47.286C108.037 46.329 107.931 45.516 107.931 39.571Z" fill="black"/>
<path d="M127.886 39.677V30.442L127.744 30.371L124.701 32.211C122.72 31.008 120.88 30.477 118.757 30.477C114.263 30.477 109.805 33.768 109.805 40.137C109.805 44.631 112.53 48.098 116.245 48.098C118.686 48.098 120.102 46.966 121.092 44.984L121.481 47.779H129.088V47.284C127.992 46.329 127.886 45.516 127.886 39.677ZM120.845 43.251C120.597 43.322 120.35 43.393 120.102 43.393C118.333 43.393 117.13 42.119 117.13 39.395C117.13 36.529 118.333 34.972 119.677 34.972C120.172 34.972 120.456 35.043 120.845 35.22V43.251Z" fill="black"/>
<path d="M139.314 47.285C138.217 46.33 138.111 45.516 138.111 39.749V23.366H129.655V23.861C130.752 24.816 130.858 25.701 130.858 31.397V39.747C130.858 45.514 130.752 46.328 129.655 47.283V47.778H139.314V47.285Z" fill="black"/>
<path d="M16.772 68.434C19.567 68.858 19.956 69.319 19.956 71.088V73.883C19.956 75.44 19.885 76.218 19.284 76.855C18.223 77.917 15.923 78.872 13.446 78.872C7.714 78.872 3.787 74.131 3.787 67.054C3.787 60.508 7.821 55.555 13.163 55.555C17.586 55.555 20.664 57.819 22.044 61.747H22.574V60.862C22.574 59.376 22.609 58.102 22.751 57.112C20.168 55.767 17.444 54.494 13.552 54.494C6.51 54.493 0 60.084 0 67.726C0 75.156 6.05 79.933 12.844 79.933C16.311 79.933 19.425 78.766 23.211 76.466C23.034 76.041 23.034 74.98 23.034 74.131V71.23C23.034 69.249 23.423 68.753 24.343 68.435V67.94H16.771L16.772 68.434Z" fill="black"/>
<path d="M42.2111 76.147V63.02L42.0691 62.949L39.7691 64.258C38.1421 63.303 36.7971 62.914 35.1691 62.914C31.0291 62.914 26.6421 66.346 26.6421 72.078C26.6421 76.855 30.0031 79.862 33.6481 79.862C35.9121 79.862 37.7881 78.801 39.4151 76.607L39.5921 79.367H44.0861V78.872C42.5291 78.447 42.2111 78.129 42.2111 76.147ZM39.3091 75.369C37.8231 77.457 36.3371 78.447 34.6381 78.447C32.0201 78.447 29.8971 75.899 29.8971 71.547C29.8971 66.947 32.3041 63.975 35.3111 63.975C36.8331 63.975 37.9651 64.364 39.3091 65.284V75.369Z" fill="black"/>
<path d="M50.101 76.147V54.953H45.147V55.448C46.881 55.873 47.199 56.191 47.199 58.173V76.147C47.199 78.128 46.881 78.447 45.147 78.871V79.366H52.259V78.871C50.49 78.447 50.101 78.129 50.101 76.147Z" fill="black"/>
<path d="M58.3798 76.147V54.953H53.4258V55.448C55.1598 55.873 55.4778 56.191 55.4778 58.173V76.147C55.4778 78.128 55.0888 78.447 53.3198 78.871V79.366H60.4318V78.871C58.6988 78.447 58.3798 78.129 58.3798 76.147Z" fill="black"/>
<path d="M77.4512 70.557C77.2392 65.533 74.4442 62.737 70.3042 62.737C66.0232 62.737 62.0952 66.098 62.0952 71.653C62.0952 76.925 65.5632 79.897 70.2692 79.897C72.6042 79.897 74.7632 79.048 76.4962 77.845C76.4962 77.102 76.4962 76.253 76.6382 75.333L76.3902 75.262C74.8342 77.774 72.8522 78.942 70.8352 78.942C67.4732 78.942 65.2802 75.439 65.2802 70.875C65.2802 70.769 65.2802 70.663 65.2802 70.557H77.4512ZM70.0922 63.622C72.9582 63.622 74.0192 66.346 74.0902 69.602H65.3512C65.6692 65.957 67.4022 63.622 70.0922 63.622Z" fill="black"/>
<path d="M84.1029 66.417V63.303H79.1489V63.798C80.9179 64.329 81.2009 64.647 81.2009 66.629V76.147C81.2009 78.128 80.8819 78.447 79.1489 78.871V79.366H86.2609V78.871C84.5269 78.447 84.1029 78.128 84.1029 76.147V67.16C86.0139 66.063 86.8979 66.028 89.1979 66.134V63.303C88.9499 63.268 88.5959 63.232 88.3489 63.232C87.2519 63.233 86.3319 64.117 84.1029 66.417Z" fill="black"/>
<path d="M102.077 63.799C103.386 64.047 103.776 64.436 103.74 65.002C103.74 65.356 103.634 65.745 103.351 66.453L99.459 76.183L95.461 66.347C95.249 65.781 95.107 65.25 95.107 65.003C95.107 64.437 95.496 64.048 96.805 63.8V63.305H90.436V63.8C91.25 64.048 91.568 64.331 92.382 66.241L97.973 79.509L96.876 82.021C95.779 84.498 94.93 85.312 92.772 86.161V86.621H96.522C96.734 85.665 97.088 84.816 98.115 82.375L104.873 66.311C105.651 64.506 106.111 64.152 107.35 63.799V63.304H102.078L102.077 63.799Z" fill="black"/>
<path d="M119.343 62.737C115.132 62.737 110.745 66.275 110.745 71.406C110.745 76.501 115.168 79.933 119.343 79.933C123.553 79.933 127.941 76.395 127.941 71.264C127.941 66.17 123.519 62.737 119.343 62.737ZM119.343 78.978C116.087 78.978 114 75.617 114 70.981C114 66.558 116.299 63.692 119.343 63.692C122.598 63.692 124.685 67.053 124.685 71.689C124.686 76.112 122.386 78.978 119.343 78.978Z" fill="black"/>
<path d="M131.515 63.303H129.462V64.294H131.515V76.147C131.515 78.128 131.197 78.447 129.462 78.871V79.366H136.574V78.871C134.84 78.447 134.416 78.128 134.416 76.147V64.294H138.414V63.303H134.416V59.694C134.416 56.757 135.619 56.297 136.893 56.297C137.671 56.297 138.804 56.686 140.184 57.252L140.326 57.217L140.609 54.952C139.795 54.74 138.839 54.598 137.99 54.598C134.805 54.599 131.692 57.996 131.515 63.303Z" fill="black"/>
<path d="M164.455 76.324L157.166 59.057C156.459 57.359 155.892 56.014 155.362 54.705H154.3C153.769 56.014 153.203 57.359 152.424 59.057L145.171 74.979C143.791 78.022 143.402 78.553 142.234 78.871V79.366H148.001V78.871C146.444 78.588 145.914 78.27 145.914 77.633C145.914 77.031 146.268 76.182 146.798 75.015L148.496 71.158H159.111L161.022 75.864C161.305 76.572 161.552 77.209 161.552 77.633C161.552 78.27 161.022 78.588 159.465 78.871V79.366H166.718V78.871C165.552 78.554 165.163 77.952 164.455 76.324ZM148.993 70.097L153.982 58.916L158.653 70.097H148.993Z" fill="black"/>
<path d="M171.956 66.417V63.303H167.003V63.798C168.772 64.329 169.055 64.647 169.055 66.629V76.147C169.055 78.128 168.843 78.588 167.781 78.871V79.366H174.114V78.871C172.38 78.447 171.956 78.128 171.956 76.147V67.16C173.867 66.063 174.751 66.028 177.051 66.134V63.303C176.803 63.268 176.449 63.232 176.202 63.232C175.105 63.233 174.185 64.117 171.956 66.417Z" fill="black"/>
<path d="M187.347 76.926C186.356 78.271 185.613 78.801 184.764 78.801C183.703 78.801 182.924 77.916 182.924 75.864V64.294H187.453V63.303H182.924V59.517H182.641C181.048 61.605 179.775 62.808 178.36 63.798V64.293H180.023V75.651C180.023 78.977 182.181 79.756 184.304 79.756C185.224 79.756 186.71 79.367 187.453 78.871C187.453 78.34 187.524 77.668 187.63 77.031L187.347 76.926Z" fill="black"/>
</g>
<defs>
<clipPath id="clip0_110_1418">
<rect width="187.63" height="104" fill="white"/>
</clipPath>
</defs>
</svg>
